<svg width="27" height="28" viewBox="0 0 27 28" fill="none" xmlns="http://www.w3.org/2000/svg">
<path d="M20.7271 4.8186C19.8858 4.8186 19.121 5.50696 19.121 6.42477C19.121 7.26609 19.8093 8.03093 20.7271 8.03093C21.5685 8.03093 22.3333 7.34257 22.3333 6.42477C22.2568 5.50696 21.5685 4.8186 20.7271 4.8186Z" fill="black"/>
<path d="M13.6141 6.88354C9.94291 6.88354 6.96004 9.86642 6.96004 13.5376C6.96004 17.2089 9.94291 20.1917 13.6141 20.1917C17.2854 20.1917 20.2682 17.2089 20.2682 13.5376C20.2682 9.86642 17.2854 6.88354 13.6141 6.88354ZM13.6141 17.8207C11.2431 17.8207 9.33104 15.9086 9.33104 13.5376C9.33104 11.1666 11.2431 9.25455 13.6141 9.25455C15.9851 9.25455 17.8972 11.1666 17.8972 13.5376C17.8972 15.9086 15.9851 17.8207 13.6141 17.8207Z" fill="black"/>
<path d="M18.968 27.0753H8.1073C3.67123 27.0753 0 23.4041 0 18.968V8.1073C0 3.67123 3.67123 0 8.1073 0H18.8915C23.4041 0 26.9988 3.67123 26.9988 8.1073V18.8915C27.0753 23.4041 23.4041 27.0753 18.968 27.0753ZM8.1073 2.52397C5.04794 2.52397 2.52397 5.04794 2.52397 8.1073V18.8915C2.52397 21.9509 5.04794 24.4749 8.1073 24.4749H18.8915C21.9509 24.4749 24.4749 21.9509 24.4749 18.8915V8.1073C24.4749 5.04794 21.9509 2.52397 18.8915 2.52397H8.1073Z" fill="black"/>
</svg>
