<svg width="31" height="25" viewBox="0 0 31 25" fill="none" xmlns="http://www.w3.org/2000/svg">
<path d="M30.856 2.9179C29.8476 3.34232 28.7673 3.62527 27.7589 3.76674C28.2631 3.69601 28.9833 2.77643 29.2714 2.42274C29.7036 1.92758 30.1357 1.29095 30.2798 0.654317C30.2798 0.58358 30.3518 0.512843 30.2798 0.512843C30.2077 0.512843 30.1357 0.512843 30.1357 0.512843C28.9833 1.14948 27.7589 1.5739 26.3905 1.92758C26.3185 1.92758 26.1744 1.92758 26.1024 1.85685C25.9583 1.71537 25.8863 1.64463 25.7423 1.50316C25.1661 1.07874 24.5899 0.654317 23.9417 0.442106C23.0774 0.0884212 22.1411 -0.0530527 21.2048 0.0176842C20.2685 0.0884212 19.4042 0.300632 18.6119 0.725054C17.8197 1.14948 17.0994 1.71537 16.5232 2.42274C15.9471 3.13011 15.5149 3.97895 15.2988 4.89854C15.0828 5.74738 15.0828 6.66696 15.2268 7.5158C15.2268 7.65728 15.2268 7.65728 15.0828 7.65728C10.0411 6.87917 5.79173 5.11075 2.33459 1.22021C2.19054 1.07874 2.11852 1.07874 1.97447 1.29095C0.461975 3.4838 1.25424 7.02064 3.12685 8.78907C3.34292 9.00128 3.63102 9.28423 3.91911 9.49644C3.84709 9.49644 2.55066 9.35496 1.47031 8.78907C1.32626 8.71833 1.25424 8.71833 1.25424 8.93054C1.25424 9.14275 1.25424 9.35496 1.32626 9.63791C1.61435 11.9015 3.19887 13.9529 5.35958 14.731C5.50363 14.8017 5.79172 14.9432 6.07982 14.9432C5.57565 15.0847 5.07149 15.1554 3.63102 15.0847C3.48697 15.0847 3.41494 15.1554 3.48697 15.2969C4.56732 18.1263 6.87208 18.9752 8.52862 19.4704C8.74469 19.5411 8.96077 19.5411 9.24886 19.5411C9.24886 19.5411 9.24886 19.5411 9.17684 19.6118C8.67267 20.4607 6.65601 21.0266 5.7197 21.3802C4.06316 21.9461 2.19054 22.2291 0.461975 22.0169C0.17388 21.9461 0.101857 21.9461 0.0298332 22.0169C-0.0421905 22.0876 0.0298332 22.1584 0.101857 22.2291C0.461975 22.4413 0.822093 22.6535 1.18221 22.8657C2.33459 23.4316 3.48697 23.9268 4.71137 24.2805C11.0495 25.9782 18.1798 24.7049 22.8613 20.107C26.6066 16.4994 27.903 11.4771 27.903 6.45475C27.903 6.24254 28.1191 6.1718 28.2631 6.03033C29.1994 5.32296 29.9917 4.47411 30.7119 3.4838C31 3.27158 31 3.05937 31 2.98864C31 2.84716 31 2.9179 30.856 2.9179Z" fill="black"/>
</svg>
